<svg width="80" height="79" viewBox="0 0 80 79" fill="none" xmlns="http://www.w3.org/2000/svg">
<path d="M63.4688 12.0181H15.6657C9.45217 12.0181 4.39636 16.982 4.39636 23.0825V50.5062C4.39636 59.5203 11.8702 66.8582 21.0512 66.8582H58.0832C67.2643 66.8582 74.7381 59.5203 74.7381 50.5062V23.0825C74.7381 16.982 69.6823 12.0181 63.4688 12.0181ZM61.593 19.3416L43.2309 40.0029C42.293 41.0604 40.9887 41.6431 39.5672 41.6431C38.1457 41.6431 36.8415 41.0604 35.9036 40.0101L17.5415 19.3488H61.593V19.3416ZM58.0832 59.5419H21.0512C15.9808 59.5419 11.8555 55.4917 11.8555 50.5134V24.0825L30.2836 44.8157C32.6283 47.4487 36.0135 48.9595 39.5672 48.9595C43.121 48.9595 46.5135 47.4487 48.8509 44.8157L67.2789 24.0825V50.5062C67.2789 55.4845 63.1537 59.5347 58.0832 59.5347V59.5419Z" fill="white"/>
</svg>
