<svg width="483" height="76" viewBox="0 0 483 76" fill="none" xmlns="http://www.w3.org/2000/svg">
<g clip-path="url(#clip0_23_168)">
<path d="M75.5251 1.82324H62.9466V1.84343C58.8957 2.22232 52.845 3.46771 47.5728 7.61536C45.1503 9.5207 43.9989 11.1667 43.6835 11.6341C40.7794 15.9246 40.7949 20.445 40.8042 23.3379C40.8135 26.1672 40.8586 29.9826 43.1599 34.0976C44.7417 36.9253 46.8891 39.1382 49.5415 40.6708C51.9065 42.0373 54.5216 43.0529 57.3124 43.688C59.7783 44.2486 62.2567 44.7424 64.7025 45.1601C66.9665 45.5328 69.0688 46.0079 70.9459 46.5732C72.206 46.9521 73.3357 47.3263 74.2152 48.3729C75.0139 49.3217 75.2501 50.387 75.3666 50.9227C75.6603 52.2535 75.5297 53.5144 75.2858 54.3281C74.6409 56.4803 72.3987 58.1869 69.5381 58.7786H21.8534V15.4184H30.1044V1.82324H0V15.4184H8.25097V58.777H0.53608V72.3722H72.5696C72.8058 72.3427 73.042 72.3116 73.2782 72.2821C73.4289 72.234 73.5797 72.1874 73.7304 72.1393C77.8574 71.2371 81.3707 69.6656 84.2236 67.4264C89.2751 63.4604 91.8359 57.8624 91.8359 50.7845V50.6975C91.8359 46.6105 91.0994 43.16 89.6465 40.4394C88.1843 37.7033 86.1938 35.5045 83.7279 33.9051C81.5043 32.464 79.0135 31.3491 76.3238 30.5928C73.9293 29.9205 71.5022 29.3366 69.117 28.8599C66.6464 28.3614 64.3063 27.8195 62.1619 27.2527C60.5755 26.8334 59.3199 26.2169 58.4311 25.4219C58.3721 25.3675 58.3193 25.3132 58.3161 25.3101C57.6387 24.6144 57.3636 23.1935 57.3636 23.1935C57.2564 22.6454 57.0715 21.6904 57.3372 20.4993C57.7925 18.4558 59.2236 17.2865 59.7519 16.8657C60.9546 15.9107 62.1977 15.5597 62.9451 15.4184H104.198V72.3706H117.802V15.4184H137.322V1.82324H75.5235H75.5251Z" fill="white"/>
<path d="M180.848 43.8043L180.939 37.9314L167.066 45.9363L153.073 37.5758L167.066 29.2168L177.497 35.2341L181.599 31.7806L172.023 26.2555L180.289 21.3144L180.368 15.3949L169.613 21.8206V10.5112L164.569 12.9787V24.8347L150.471 33.2573V19.201L161.605 11.1541V4.86196L150.471 12.9088V0H145.427V75.4062H150.471V63.2785L159.113 69.479L162.132 65.4401L150.471 56.9864V41.8943L164.569 50.3169V62.9198H169.613V53.331L179.099 59.0983L181.688 54.772L172.023 48.8976L180.848 43.8043Z" fill="white"/>
</g>
<g clip-path="url(#clip1_23_168)">
<path d="M214.72 34.2111H208.761C208.461 34.2111 208.226 34.1544 208.064 34.0409C207.902 33.9275 207.821 33.7654 207.821 33.5547C207.821 33.2062 207.991 32.9793 208.323 32.8739C208.599 32.7848 208.761 32.728 208.81 32.7037C208.858 32.6794 208.907 32.6308 208.956 32.5578C209.061 32.4201 209.11 32.2094 209.11 31.9176V19.275C209.11 18.9832 209.061 18.7644 208.956 18.6347C208.907 18.5618 208.858 18.5132 208.81 18.4888C208.761 18.4645 208.599 18.4078 208.323 18.3186C207.983 18.2133 207.821 17.9783 207.821 17.6379C207.821 17.4272 207.902 17.2651 208.064 17.1516C208.226 17.0382 208.461 16.9814 208.761 16.9814H215.052C215.352 16.9814 215.587 17.0382 215.749 17.1516C215.911 17.2651 215.992 17.4272 215.992 17.6379C215.992 17.9864 215.822 18.2133 215.49 18.3186C215.214 18.4159 215.052 18.4726 215.003 18.4888C214.955 18.5132 214.906 18.5618 214.857 18.6347C214.76 18.7725 214.703 18.9832 214.703 19.275V31.9095C214.703 32.2013 214.752 32.4201 214.857 32.5497C214.906 32.6227 214.955 32.6713 215.003 32.6956C215.052 32.7199 215.214 32.7767 215.49 32.8658C215.83 32.9793 215.992 33.2062 215.992 33.5466C215.992 33.7573 215.911 33.9194 215.749 34.0328C215.587 34.1463 215.352 34.203 215.052 34.203H214.72V34.2111Z" fill="white"/>
<path d="M219.924 21.4067L221.262 23.6272V30.3943C221.262 30.9859 221.359 31.4641 221.562 31.845C221.765 32.2259 222.073 32.5338 222.502 32.7769L222.883 32.9958C223.102 33.1254 223.216 33.3118 223.216 33.5631C223.216 33.7576 223.135 33.9196 222.972 34.0412C222.835 34.1466 222.559 34.2033 222.137 34.2033H219.219C218.457 34.2033 218.068 33.9845 218.068 33.5469C218.068 33.3929 218.108 33.2713 218.189 33.1903C218.27 33.1092 218.441 32.9796 218.716 32.8337C219.527 32.3879 219.924 31.5775 219.924 30.3943V21.4067ZM225.21 16.9817L231.931 28.6438V34.2114H228.485L219.908 19.4373C219.722 19.1213 219.568 18.8943 219.454 18.7647C219.332 18.635 219.187 18.5459 219 18.4891L218.522 18.3108C218.392 18.2703 218.295 18.1974 218.222 18.0839C218.149 17.9705 218.108 17.8489 218.108 17.7192C218.108 17.5733 218.149 17.4437 218.222 17.3221C218.295 17.2006 218.4 17.1114 218.522 17.0628C218.668 17.006 219.049 16.9736 219.681 16.9736H225.21V16.9817ZM231.931 26.6258L230.593 24.3647V20.8718C230.593 20.1667 230.488 19.6237 230.285 19.2509C230.082 18.8781 229.717 18.554 229.19 18.2865C229.012 18.2055 228.891 18.1082 228.826 18.0191C228.761 17.9218 228.72 17.8003 228.72 17.6463C228.72 17.4194 228.793 17.2492 228.939 17.1438C229.085 17.0385 229.32 16.9898 229.653 16.9898H232.806C233.236 16.9898 233.52 17.0547 233.649 17.1924C233.795 17.3302 233.86 17.4842 233.86 17.6706C233.86 17.857 233.82 17.9786 233.738 18.0677C233.657 18.1569 233.463 18.2784 233.163 18.4243C232.717 18.6512 232.377 18.9997 232.15 19.4697C231.987 19.8182 231.906 20.2802 231.906 20.8718V26.6258H231.931Z" fill="white"/>
<path d="M242.008 16.6414V18.0434C241.27 18.2217 240.897 18.8052 240.897 19.8102V31.5614C240.897 32.0152 240.962 32.3637 241.083 32.6068C241.197 32.8094 241.424 32.9796 241.781 33.1255V34.5518C241.513 34.5518 241.262 34.5275 241.043 34.487C240.816 34.4465 240.524 34.3573 240.151 34.2358C239.267 33.9359 238.465 33.474 237.751 32.8499C237.038 32.2259 236.446 31.4803 235.984 30.6132C235.271 29.2597 234.914 27.6551 234.914 25.8073C234.914 23.9596 235.23 22.4279 235.871 21.0339C236.511 19.64 237.427 18.554 238.627 17.7679C239.316 17.306 240.062 16.9737 240.848 16.7711C241.181 16.69 241.562 16.6414 242.008 16.6414ZM248.753 32.1043C248.412 32.4447 247.966 32.7851 247.407 33.1336C246.847 33.4821 246.32 33.7576 245.826 33.9602C245.372 34.1385 244.869 34.2763 244.318 34.3897C243.767 34.4951 243.28 34.5518 242.859 34.5518V33.1255C243.102 33.0688 243.288 32.9958 243.41 32.9067C243.532 32.8256 243.637 32.7041 243.718 32.5501C243.864 32.2907 243.929 31.9585 243.929 31.5533V27.8658C243.929 27.5335 243.864 27.2985 243.742 27.1607C243.686 27.0797 243.621 27.023 243.564 26.9987C243.507 26.9743 243.313 26.9257 242.98 26.8528C242.575 26.7555 242.372 26.5124 242.372 26.1477C242.372 25.9289 242.47 25.7587 242.656 25.6452C242.843 25.5318 243.126 25.4669 243.499 25.4669H248.534C248.915 25.4669 249.182 25.5237 249.336 25.6209C249.49 25.7263 249.571 25.9127 249.571 26.172C249.571 26.3341 249.539 26.4638 249.474 26.5691C249.409 26.6745 249.296 26.7879 249.125 26.9014C248.955 27.0149 248.85 27.1283 248.809 27.2337C248.769 27.339 248.744 27.5173 248.744 27.7929V32.0962L248.753 32.1043ZM243.045 18.011V16.6495C244.415 16.7792 245.542 17.0304 246.426 17.4032C246.685 17.5248 246.888 17.5815 247.034 17.5815C247.172 17.5815 247.269 17.5491 247.342 17.4842C247.415 17.4194 247.561 17.2411 247.78 16.9494C247.934 16.7387 248.12 16.6333 248.347 16.6333C248.574 16.6333 248.753 16.6981 248.842 16.8278C248.939 16.9575 248.988 17.1763 248.988 17.4761V22.3873C248.988 23.0276 248.753 23.3436 248.282 23.3436C248.047 23.3436 247.869 23.2788 247.755 23.1572C247.642 23.0276 247.537 22.7844 247.431 22.4116C247.301 21.9416 247.074 21.3905 246.75 20.7665C246.426 20.1424 246.11 19.6481 245.802 19.2834C245.453 18.862 245.072 18.554 244.642 18.3595C244.213 18.165 243.678 18.0434 243.037 18.011H243.045Z" fill="white"/>
<path d="M258.359 16.9814V34.2111H252.409C252.109 34.2111 251.874 34.1544 251.712 34.0409C251.549 33.9275 251.468 33.7654 251.468 33.5547C251.468 33.2062 251.639 32.9793 251.971 32.8739C252.247 32.7848 252.409 32.728 252.457 32.7037C252.506 32.6794 252.555 32.6308 252.603 32.5578C252.709 32.4201 252.757 32.2094 252.757 31.9176V19.275C252.757 18.9832 252.709 18.7644 252.603 18.6347C252.555 18.5618 252.506 18.5132 252.457 18.4888C252.409 18.4645 252.247 18.4078 251.971 18.3186C251.631 18.2133 251.468 17.9783 251.468 17.6379C251.468 17.4272 251.549 17.2651 251.712 17.1516C251.874 17.0382 252.109 16.9814 252.409 16.9814H258.359ZM259.421 26.1717V24.7048C259.908 24.4698 260.273 24.2105 260.508 23.9349C260.743 23.6594 260.913 23.2866 261.026 22.8246C261.091 22.5086 261.18 22.2816 261.294 22.1601C261.407 22.0385 261.562 21.9737 261.764 21.9737C262.032 21.9737 262.218 22.079 262.324 22.2897C262.38 22.4032 262.413 22.6463 262.413 23.0353V27.8412C262.413 28.2383 262.372 28.5138 262.283 28.6597C262.194 28.8137 262.032 28.8866 261.797 28.8866C261.602 28.8866 261.448 28.8299 261.343 28.7083C261.237 28.5868 261.148 28.3923 261.075 28.1167C260.929 27.5332 260.727 27.0875 260.467 26.7795C260.2 26.4715 259.859 26.2608 259.438 26.1636L259.421 26.1717ZM259.486 16.9814H264.577V21.4469C264.577 21.7062 264.529 21.9007 264.423 22.0142C264.318 22.1277 264.164 22.1925 263.945 22.1925C263.759 22.1925 263.629 22.152 263.54 22.079C263.459 22.0061 263.377 21.844 263.296 21.609C262.98 20.6365 262.51 19.8909 261.886 19.3722C261.27 18.8616 260.467 18.5537 259.478 18.4483V16.9814H259.486ZM259.494 34.2111V32.8496C260.037 32.7686 260.491 32.647 260.848 32.493C261.205 32.339 261.562 32.1121 261.926 31.796C262.291 31.4881 262.575 31.1639 262.794 30.8316C263.013 30.4994 263.215 30.0617 263.41 29.5106C263.499 29.2432 263.596 29.0568 263.702 28.9595C263.799 28.8623 263.945 28.8137 264.115 28.8137C264.35 28.8137 264.512 28.8866 264.61 29.0244C264.699 29.1622 264.748 29.4053 264.748 29.7538V34.2111H259.494Z" fill="white"/>
<path d="M268.501 21.4064L269.839 23.6269V30.394C269.839 30.9856 269.936 31.4638 270.139 31.8447C270.341 32.2256 270.649 32.5335 271.079 32.7767L271.46 32.9955C271.679 33.1251 271.792 33.3115 271.792 33.5628C271.792 33.7573 271.711 33.9194 271.549 34.0409C271.411 34.1463 271.136 34.203 270.714 34.203H267.796C267.034 34.203 266.645 33.9842 266.645 33.5466C266.645 33.3926 266.685 33.271 266.766 33.19C266.847 33.1089 267.017 32.9793 267.293 32.8334C268.104 32.3877 268.501 31.5772 268.501 30.394V21.4064ZM273.787 16.9814L280.507 28.6435V34.2111H277.062L268.485 19.4451C268.298 19.1291 268.144 18.9022 268.031 18.7725C267.909 18.6428 267.763 18.5537 267.577 18.4969L267.099 18.3186C266.969 18.2781 266.872 18.2052 266.799 18.0917C266.726 17.9783 266.685 17.8567 266.685 17.727C266.685 17.5812 266.726 17.4515 266.799 17.3299C266.872 17.2084 266.977 17.1192 267.099 17.0706C267.244 17.0139 267.625 16.9814 268.258 16.9814H273.787ZM280.507 26.6255L279.17 24.3644V20.8715C279.17 20.1664 279.064 19.6234 278.862 19.2506C278.659 18.8778 278.294 18.5537 277.767 18.2862C277.589 18.2052 277.467 18.1079 277.402 18.0188C277.338 17.9215 277.297 17.8 277.297 17.646C277.297 17.4191 277.37 17.2489 277.516 17.1435C277.662 17.0382 277.897 16.9895 278.229 16.9895H281.383C281.813 16.9895 282.096 17.0544 282.226 17.1922C282.372 17.3299 282.437 17.4839 282.437 17.6703C282.437 17.8567 282.396 17.9783 282.315 18.0674C282.234 18.1566 282.04 18.2781 281.74 18.424C281.294 18.6509 280.953 18.9994 280.726 19.4695C280.564 19.8179 280.483 20.2799 280.483 20.8715V26.6255H280.507Z" fill="white"/>
<path d="M290.909 34.2111H284.95C284.65 34.2111 284.415 34.1544 284.253 34.0409C284.091 33.9275 284.01 33.7654 284.01 33.5547C284.01 33.2062 284.18 32.9793 284.512 32.8739C284.788 32.7848 284.95 32.728 284.999 32.7037C285.047 32.6794 285.096 32.6308 285.145 32.5578C285.25 32.4201 285.299 32.2094 285.299 31.9176V19.275C285.299 18.9832 285.25 18.7644 285.145 18.6347C285.096 18.5618 285.047 18.5132 284.999 18.4888C284.95 18.4645 284.788 18.4078 284.512 18.3186C284.172 18.2133 284.01 17.9783 284.01 17.6379C284.01 17.4272 284.091 17.2651 284.253 17.1516C284.415 17.0382 284.65 16.9814 284.95 16.9814H291.241C291.541 16.9814 291.776 17.0382 291.938 17.1516C292.1 17.2651 292.181 17.4272 292.181 17.6379C292.181 17.9864 292.011 18.2133 291.679 18.3186C291.403 18.4159 291.241 18.4726 291.192 18.4888C291.144 18.5132 291.095 18.5618 291.046 18.6347C290.949 18.7725 290.892 18.9832 290.892 19.275V31.9095C290.892 32.2013 290.941 32.4201 291.046 32.5497C291.095 32.6227 291.144 32.6713 291.192 32.6956C291.241 32.7199 291.403 32.7767 291.679 32.8658C292.019 32.9793 292.181 33.2062 292.181 33.5466C292.181 33.7573 292.1 33.9194 291.938 34.0328C291.776 34.1463 291.541 34.203 291.241 34.203H290.909V34.2111Z" fill="white"/>
<path d="M301.156 16.9814V34.2111H295.205C294.905 34.2111 294.67 34.1544 294.508 34.0409C294.346 33.9275 294.265 33.7654 294.265 33.5547C294.265 33.2062 294.435 32.9793 294.768 32.8739C295.043 32.7848 295.205 32.728 295.254 32.7037C295.303 32.6794 295.351 32.6308 295.4 32.5578C295.505 32.4201 295.554 32.2094 295.554 31.9176V19.275C295.554 18.9832 295.505 18.7644 295.4 18.6347C295.351 18.5618 295.303 18.5132 295.254 18.4888C295.205 18.4645 295.043 18.4078 294.768 18.3186C294.427 18.2133 294.265 17.9783 294.265 17.6379C294.265 17.4272 294.346 17.2651 294.508 17.1516C294.67 17.0382 294.905 16.9814 295.205 16.9814H301.156ZM302.21 26.1717V24.7048C302.696 24.4698 303.061 24.2105 303.296 23.9349C303.531 23.6594 303.701 23.2866 303.815 22.8246C303.88 22.5086 303.969 22.2816 304.082 22.1601C304.196 22.0385 304.35 21.9737 304.553 21.9737C304.82 21.9737 305.007 22.079 305.112 22.2897C305.169 22.4032 305.201 22.6463 305.201 23.0353V27.8412C305.201 28.2383 305.161 28.5138 305.071 28.6597C304.982 28.8137 304.82 28.8866 304.585 28.8866C304.39 28.8866 304.236 28.8299 304.131 28.7083C304.026 28.5868 303.936 28.3923 303.864 28.1167C303.718 27.5332 303.515 27.0875 303.255 26.7795C302.988 26.4715 302.647 26.2608 302.226 26.1636L302.21 26.1717ZM302.275 16.9814H307.366V21.4469C307.366 21.7062 307.317 21.9007 307.212 22.0142C307.106 22.1277 306.952 22.1925 306.733 22.1925C306.547 22.1925 306.417 22.152 306.328 22.079C306.247 22.0061 306.166 21.844 306.085 21.609C305.769 20.6365 305.298 19.8909 304.674 19.3722C304.058 18.8616 303.255 18.5537 302.266 18.4483V16.9814H302.275ZM302.291 34.2111V32.8496C302.834 32.7686 303.288 32.647 303.645 32.493C304.001 32.339 304.358 32.1121 304.723 31.796C305.088 31.4881 305.371 31.1639 305.59 30.8316C305.809 30.4994 306.012 30.0617 306.206 29.5106C306.296 29.2432 306.393 29.0568 306.498 28.9595C306.596 28.8623 306.741 28.8137 306.912 28.8137C307.147 28.8137 307.309 28.8866 307.406 29.0244C307.495 29.1622 307.544 29.4053 307.544 29.7538V34.2111H302.291Z" fill="white"/>
<path d="M316.332 16.9814V31.8123C316.332 32.1445 316.397 32.3796 316.518 32.5173C316.583 32.5984 316.648 32.6551 316.705 32.6794C316.762 32.7037 316.956 32.7523 317.289 32.8334C317.694 32.9225 317.897 33.1576 317.897 33.5304C317.897 33.7492 317.783 33.9275 317.564 34.0571C317.402 34.1544 317.143 34.2111 316.77 34.2111H310.382C310.082 34.2111 309.846 34.1544 309.684 34.0409C309.522 33.9275 309.441 33.7654 309.441 33.5547C309.441 33.2062 309.611 32.9793 309.944 32.8739C310.219 32.7848 310.382 32.728 310.43 32.7037C310.479 32.6794 310.527 32.6308 310.576 32.5578C310.681 32.4201 310.73 32.2094 310.73 31.9176V19.275C310.73 18.9832 310.681 18.7644 310.576 18.6347C310.527 18.5618 310.479 18.5132 310.43 18.4888C310.382 18.4645 310.219 18.4078 309.944 18.3186C309.603 18.2133 309.441 17.9783 309.441 17.6379C309.441 17.4272 309.522 17.2651 309.684 17.1516C309.846 17.0382 310.082 16.9814 310.382 16.9814H316.332ZM320.207 25.7665C320.985 25.888 321.577 26.0177 321.991 26.1555C322.404 26.2932 322.785 26.4959 323.118 26.739C323.474 26.9983 323.742 27.3144 323.928 27.671C324.115 28.0357 324.212 28.4166 324.212 28.8218V31.4314C324.212 31.6988 324.301 31.8366 324.479 31.8366C324.544 31.8366 324.601 31.8204 324.65 31.7798C324.698 31.7393 324.763 31.6664 324.844 31.561C325.055 31.2774 325.266 31.1315 325.485 31.1315C325.631 31.1315 325.768 31.2044 325.914 31.3584C326.06 31.5124 326.133 31.6583 326.133 31.8123C326.133 32.0716 326.012 32.3877 325.76 32.7686C325.509 33.1495 325.201 33.4736 324.828 33.7735C324.479 34.049 324.107 34.2516 323.701 34.3732C323.296 34.4948 322.818 34.5596 322.274 34.5596C321.164 34.5596 320.296 34.2435 319.672 33.6033C319.048 32.9712 318.74 32.0797 318.74 30.9451V28.8218C318.74 28.3517 318.74 28.0762 318.724 28.0032C318.683 27.6629 318.561 27.3792 318.367 27.1361C318.124 26.8443 317.775 26.666 317.321 26.6174V25.264C317.775 25.1992 318.099 25.0776 318.294 24.9074C318.464 24.7534 318.578 24.5832 318.642 24.3887C318.707 24.1942 318.74 23.9106 318.74 23.5297V20.1826C318.74 19.6559 318.634 19.2587 318.432 18.9994C318.229 18.7401 317.856 18.5294 317.313 18.3835V16.9814H317.645C318.578 16.9814 319.372 17.0139 320.029 17.0787C321.002 17.1678 321.877 17.492 322.639 18.035C323.742 18.8211 324.293 19.9314 324.293 21.3821C324.293 22.5653 323.92 23.5378 323.182 24.2996C322.874 24.6157 322.509 24.8831 322.088 25.0857C321.674 25.2883 321.034 25.5152 320.191 25.7665H320.207Z" fill="white"/>
<path d="M334.427 34.2111H328.468C328.168 34.2111 327.933 34.1544 327.771 34.0409C327.609 33.9275 327.528 33.7654 327.528 33.5547C327.528 33.2062 327.698 32.9793 328.03 32.8739C328.306 32.7848 328.468 32.728 328.517 32.7037C328.565 32.6794 328.614 32.6308 328.663 32.5578C328.768 32.4201 328.817 32.2094 328.817 31.9176V19.275C328.817 18.9832 328.768 18.7644 328.663 18.6347C328.614 18.5618 328.565 18.5132 328.517 18.4888C328.468 18.4645 328.306 18.4078 328.03 18.3186C327.69 18.2133 327.528 17.9783 327.528 17.6379C327.528 17.4272 327.609 17.2651 327.771 17.1516C327.933 17.0382 328.168 16.9814 328.468 16.9814H334.759C335.059 16.9814 335.294 17.0382 335.456 17.1516C335.618 17.2651 335.699 17.4272 335.699 17.6379C335.699 17.9864 335.529 18.2133 335.197 18.3186C334.921 18.4159 334.759 18.4726 334.71 18.4888C334.662 18.5132 334.613 18.5618 334.564 18.6347C334.467 18.7725 334.41 18.9832 334.41 19.275V31.9095C334.41 32.2013 334.459 32.4201 334.564 32.5497C334.613 32.6227 334.662 32.6713 334.71 32.6956C334.759 32.7199 334.921 32.7767 335.197 32.8658C335.537 32.9793 335.699 33.2062 335.699 33.5466C335.699 33.7573 335.618 33.9194 335.456 34.0328C335.294 34.1463 335.059 34.203 334.759 34.203H334.427V34.2111Z" fill="white"/>
<path d="M341.966 20.1829L342.607 22.7925L340.369 30.9454C340.304 31.1804 340.272 31.3992 340.272 31.6018C340.272 32.1286 340.523 32.5095 341.018 32.7364L341.463 32.939C341.739 33.0687 341.877 33.2794 341.877 33.5712C341.877 33.9926 341.569 34.2033 340.953 34.2033H337.742C337.434 34.2033 337.183 34.1385 337.005 34.0088C336.826 33.8791 336.729 33.7008 336.729 33.4739C336.729 33.2308 336.915 33.0282 337.288 32.8661C337.637 32.7121 337.888 32.5743 338.05 32.4528C338.213 32.3312 338.375 32.161 338.521 31.9584C338.756 31.6099 338.95 31.1561 339.104 30.5807L341.958 20.1829H341.966ZM342.834 16.9817H347.925L351.435 31.8125C351.5 32.0719 351.581 32.3069 351.662 32.5095C351.735 32.6716 351.905 32.8013 352.165 32.8985C352.383 32.9877 352.538 33.0849 352.619 33.1741C352.7 33.2632 352.748 33.3929 352.748 33.555C352.748 33.9926 352.416 34.2114 351.759 34.2114H345.46C345.209 34.2114 345.006 34.1466 344.852 34.025C344.698 33.9034 344.625 33.7414 344.625 33.5387C344.625 33.3686 344.658 33.247 344.722 33.1578C344.787 33.0768 344.941 32.9715 345.176 32.8418C345.347 32.7607 345.46 32.6635 345.533 32.5662C345.598 32.469 345.63 32.3393 345.63 32.1853C345.63 32.0395 345.614 31.9179 345.59 31.8044L345.185 29.9729H341.658L341.999 28.4736H344.828L342.501 18.2136L342.817 16.9736L342.834 16.9817Z" fill="white"/>
<path d="M357.029 29.681C357.75 29.681 358.375 29.9646 358.885 30.5238C359.128 30.7831 359.323 31.0992 359.469 31.4801C359.615 31.8529 359.688 32.2338 359.688 32.6066C359.688 33.4089 359.428 34.2193 358.901 35.0379C358.383 35.8564 357.677 36.5534 356.802 37.1288C356.064 37.615 355.48 37.8582 355.059 37.8582C354.889 37.8582 354.751 37.8095 354.645 37.7042C354.54 37.6069 354.483 37.4692 354.483 37.299C354.483 37.0477 354.645 36.837 354.962 36.6668C355.732 36.2697 356.291 35.8807 356.64 35.4917C356.98 35.127 357.142 34.8677 357.142 34.6975C357.142 34.5354 357.013 34.4382 356.761 34.4057L356.599 34.3814L356.413 34.3652C355.87 34.2842 355.424 34.0248 355.083 33.6034C354.743 33.182 354.572 32.6633 354.572 32.0555C354.572 31.4477 354.783 30.8966 355.205 30.4428C355.683 29.9322 356.291 29.6729 357.037 29.6729L357.029 29.681Z" fill="white"/>
<path d="M374.718 16.6411V18.0918C374.199 18.2377 373.802 18.4565 373.526 18.7563C373.251 19.0562 373.113 19.4209 373.113 19.8585C373.113 20.2961 373.227 20.6446 373.454 20.9607C373.681 21.2768 374.053 21.5766 374.564 21.8603C374.921 22.0548 375.715 22.4276 376.964 22.9705C377.718 23.3028 378.31 23.5946 378.723 23.862C379.136 24.1295 379.534 24.4617 379.907 24.8507C380.904 25.8962 381.398 27.1361 381.398 28.5787C381.398 29.6647 381.131 30.6534 380.588 31.5611C380.053 32.4606 379.307 33.1657 378.366 33.6844C377.864 33.9518 377.304 34.1625 376.704 34.3246C376.104 34.4867 375.537 34.5596 375.018 34.5596V33.1171C375.748 32.9388 376.275 32.6957 376.599 32.3796C376.923 32.0635 377.085 31.634 377.085 31.0991C377.085 30.5642 376.834 30.0375 376.331 29.6079C375.991 29.3324 375.359 28.9839 374.41 28.5706C373.372 28.1168 372.667 27.7926 372.286 27.5981C371.905 27.4036 371.532 27.1767 371.184 26.9173C369.603 25.7908 368.808 24.2915 368.808 22.4114C368.808 21.455 369.003 20.5636 369.4 19.7532C369.797 18.9427 370.349 18.2863 371.054 17.7919C372.043 17.1031 373.259 16.7222 374.718 16.6411ZM374.062 33.109V34.5515C373.372 34.5515 372.61 34.357 371.775 33.9599C371.467 33.8141 371.248 33.7249 371.135 33.6844C371.013 33.6439 370.9 33.6195 370.794 33.6195C370.624 33.6195 370.503 33.6439 370.413 33.7006C370.332 33.7573 370.195 33.8951 370.008 34.1139C369.854 34.3003 369.692 34.3895 369.514 34.3895C369.043 34.3895 368.808 34.0248 368.808 33.3035V28.7084C368.808 28.4733 368.873 28.2707 369.011 28.1086C369.149 27.9466 369.311 27.8574 369.514 27.8493C369.7 27.8412 369.846 27.8898 369.951 28.0033C370.057 28.1168 370.146 28.3194 370.227 28.603C370.422 29.3243 370.697 30.005 371.07 30.6372C371.443 31.2693 371.865 31.8042 372.351 32.2418C372.845 32.6957 373.421 32.9874 374.07 33.1171L374.062 33.109ZM375.715 18.0918V16.6978C376.218 16.7303 376.656 16.7951 377.029 16.8923C377.402 16.9896 377.929 17.1841 378.61 17.4677C378.78 17.5326 378.918 17.565 379.023 17.565C379.185 17.565 379.299 17.5083 379.38 17.4029L379.655 17.0382C379.793 16.8518 379.955 16.7627 380.15 16.7627C380.377 16.7627 380.547 16.8437 380.652 17.0058C380.758 17.1679 380.806 17.4272 380.806 17.7838V21.9494C380.806 22.1925 380.734 22.3951 380.596 22.5491C380.458 22.7031 380.28 22.7841 380.061 22.7841C379.89 22.7841 379.736 22.7274 379.59 22.6221C379.517 22.5572 379.453 22.4762 379.404 22.3789C379.355 22.2817 379.315 22.1196 379.274 21.8927C379.185 21.4794 379.023 21.0579 378.796 20.6203C378.569 20.1827 378.301 19.7937 378.001 19.4452C377.393 18.7644 376.631 18.3106 375.715 18.0918Z" fill="white"/>
<path d="M390.275 16.9814V34.2111H384.325C384.025 34.2111 383.79 34.1544 383.628 34.0409C383.466 33.9275 383.384 33.7654 383.384 33.5547C383.384 33.2062 383.555 32.9793 383.887 32.8739C384.163 32.7848 384.325 32.728 384.373 32.7037C384.422 32.6794 384.471 32.6308 384.519 32.5578C384.625 32.4201 384.673 32.2094 384.673 31.9176V19.275C384.673 18.9832 384.625 18.7644 384.519 18.6347C384.471 18.5618 384.422 18.5132 384.373 18.4888C384.325 18.4645 384.163 18.4078 383.887 18.3186C383.547 18.2133 383.384 17.9783 383.384 17.6379C383.384 17.4272 383.466 17.2651 383.628 17.1516C383.79 17.0382 384.025 16.9814 384.325 16.9814H390.275ZM391.337 26.1717V24.7048C391.824 24.4698 392.189 24.2105 392.424 23.9349C392.659 23.6594 392.829 23.2866 392.943 22.8246C393.007 22.5086 393.097 22.2816 393.21 22.1601C393.324 22.0385 393.478 21.9737 393.68 21.9737C393.948 21.9737 394.134 22.079 394.24 22.2897C394.296 22.4032 394.329 22.6463 394.329 23.0353V27.8412C394.329 28.2383 394.288 28.5138 394.199 28.6597C394.11 28.8137 393.948 28.8866 393.713 28.8866C393.518 28.8866 393.364 28.8299 393.259 28.7083C393.153 28.5868 393.064 28.3923 392.991 28.1167C392.845 27.5332 392.643 27.0875 392.383 26.7795C392.116 26.4715 391.775 26.2608 391.354 26.1636L391.337 26.1717ZM391.402 16.9814H396.493V21.4469C396.493 21.7062 396.445 21.9007 396.339 22.0142C396.234 22.1277 396.08 22.1925 395.861 22.1925C395.675 22.1925 395.545 22.152 395.456 22.079C395.375 22.0061 395.294 21.844 395.212 21.609C394.896 20.6365 394.426 19.8909 393.802 19.3722C393.186 18.8616 392.383 18.5537 391.394 18.4483V16.9814H391.402ZM391.41 34.2111V32.8496C391.953 32.7686 392.407 32.647 392.764 32.493C393.121 32.339 393.478 32.1121 393.842 31.796C394.207 31.4881 394.491 31.1639 394.71 30.8316C394.929 30.4994 395.131 30.0617 395.326 29.5106C395.415 29.2432 395.512 29.0568 395.618 28.9595C395.715 28.8623 395.861 28.8137 396.031 28.8137C396.266 28.8137 396.429 28.8866 396.526 29.0244C396.615 29.1622 396.664 29.4053 396.664 29.7538V34.2111H391.41Z" fill="white"/>
<path d="M405.452 16.9814V31.8123C405.452 32.1445 405.516 32.3796 405.638 32.5173C405.703 32.5984 405.768 32.6551 405.824 32.6794C405.881 32.7037 406.076 32.7523 406.408 32.8334C406.814 32.9225 407.016 33.1576 407.016 33.5304C407.016 33.7492 406.903 33.9275 406.684 34.0571C406.522 34.1544 406.262 34.2111 405.889 34.2111H399.501C399.201 34.2111 398.966 34.1544 398.804 34.0409C398.642 33.9275 398.561 33.7654 398.561 33.5547C398.561 33.2062 398.731 32.9793 399.063 32.8739C399.339 32.7848 399.501 32.728 399.55 32.7037C399.598 32.6794 399.647 32.6308 399.696 32.5578C399.801 32.4201 399.85 32.2094 399.85 31.9176V19.275C399.85 18.9832 399.801 18.7644 399.696 18.6347C399.647 18.5618 399.598 18.5132 399.55 18.4888C399.501 18.4645 399.339 18.4078 399.063 18.3186C398.723 18.2133 398.561 17.9783 398.561 17.6379C398.561 17.4272 398.642 17.2651 398.804 17.1516C398.966 17.0382 399.201 16.9814 399.501 16.9814H405.452ZM409.327 25.7665C410.105 25.888 410.697 26.0177 411.11 26.1555C411.524 26.2932 411.905 26.4959 412.237 26.739C412.594 26.9983 412.861 27.3144 413.048 27.671C413.234 28.0357 413.332 28.4166 413.332 28.8218V31.4314C413.332 31.6988 413.421 31.8366 413.599 31.8366C413.664 31.8366 413.721 31.8204 413.769 31.7798C413.818 31.7393 413.883 31.6664 413.964 31.561C414.175 31.2774 414.385 31.1315 414.604 31.1315C414.75 31.1315 414.888 31.2044 415.034 31.3584C415.18 31.5124 415.253 31.6583 415.253 31.8123C415.253 32.0716 415.131 32.3877 414.88 32.7686C414.629 33.1495 414.321 33.4736 413.948 33.7735C413.599 34.049 413.226 34.2516 412.821 34.3732C412.415 34.4948 411.937 34.5596 411.394 34.5596C410.283 34.5596 409.416 34.2435 408.792 33.6033C408.167 32.9712 407.859 32.0797 407.859 30.9451V28.8218C407.859 28.3517 407.859 28.0762 407.843 28.0032C407.803 27.6629 407.681 27.3792 407.486 27.1361C407.243 26.8443 406.895 26.666 406.441 26.6174V25.264C406.895 25.1992 407.219 25.0776 407.413 24.9074C407.584 24.7534 407.697 24.5832 407.762 24.3887C407.827 24.1942 407.859 23.9106 407.859 23.5297V20.1826C407.859 19.6559 407.754 19.2587 407.551 18.9994C407.349 18.7401 406.976 18.5294 406.433 18.3835V16.9814H406.765C407.697 16.9814 408.492 17.0139 409.148 17.0787C410.121 17.1678 410.997 17.492 411.759 18.035C412.861 18.8211 413.413 19.9314 413.413 21.3821C413.413 22.5653 413.04 23.5378 412.302 24.2996C411.994 24.6157 411.629 24.8831 411.207 25.0857C410.794 25.2883 410.154 25.5152 409.31 25.7665H409.327Z" fill="white"/>
<path d="M426.084 29.7946L424.884 34.2114H421.56L417.061 19.1294C416.996 18.9024 416.931 18.7485 416.874 18.6674C416.817 18.5864 416.72 18.5215 416.599 18.4567C416.331 18.3433 416.153 18.246 416.072 18.1569C415.991 18.0677 415.942 17.9218 415.942 17.7435C415.942 17.4923 416.055 17.2897 416.282 17.1519C416.461 17.0466 416.753 16.9898 417.15 16.9898H422.768C423.125 16.9898 423.36 16.9979 423.498 17.0142C423.627 17.0304 423.733 17.0628 423.822 17.1114C423.903 17.1681 423.976 17.2573 424.033 17.3626C424.089 17.468 424.122 17.5733 424.122 17.6787C424.122 17.9867 423.976 18.2136 423.684 18.3514C423.465 18.4567 423.319 18.5702 423.238 18.6836C423.157 18.7971 423.117 18.9592 423.117 19.1699C423.117 19.3077 423.133 19.4211 423.157 19.5265L426.084 29.8027V29.7946ZM426.57 27.9873L425.897 25.6128L427.348 20.2964C427.438 19.956 427.494 19.7534 427.502 19.6805C427.519 19.4941 427.478 19.2915 427.373 19.0645C427.235 18.7728 427.024 18.5783 426.74 18.481L426.327 18.327C425.994 18.2136 425.832 18.0029 425.832 17.6868C425.832 17.4599 425.922 17.2816 426.108 17.16C426.294 17.0385 426.546 16.9736 426.878 16.9736H429.975C430.364 16.9736 430.615 17.0142 430.729 17.0871C430.932 17.2168 431.029 17.3951 431.029 17.6301C431.029 17.7922 430.996 17.9137 430.932 18.011C430.867 18.1082 430.753 18.1893 430.583 18.2622L429.943 18.5621C429.675 18.6917 429.416 18.9349 429.164 19.3158C428.913 19.6886 428.727 20.1181 428.589 20.5962L426.554 27.9792L426.57 27.9873Z" fill="white"/>
<path d="M439.152 34.2111H433.193C432.894 34.2111 432.658 34.1544 432.496 34.0409C432.334 33.9275 432.253 33.7654 432.253 33.5547C432.253 33.2062 432.423 32.9793 432.756 32.8739C433.031 32.7848 433.193 32.728 433.242 32.7037C433.291 32.6794 433.339 32.6308 433.388 32.5578C433.493 32.4201 433.542 32.2094 433.542 31.9176V19.275C433.542 18.9832 433.493 18.7644 433.388 18.6347C433.339 18.5618 433.291 18.5132 433.242 18.4888C433.193 18.4645 433.031 18.4078 432.756 18.3186C432.415 18.2133 432.253 17.9783 432.253 17.6379C432.253 17.4272 432.334 17.2651 432.496 17.1516C432.658 17.0382 432.894 16.9814 433.193 16.9814H439.484C439.784 16.9814 440.019 17.0382 440.182 17.1516C440.344 17.2651 440.425 17.4272 440.425 17.6379C440.425 17.9864 440.255 18.2133 439.922 18.3186C439.647 18.4159 439.484 18.4726 439.436 18.4888C439.387 18.5132 439.339 18.5618 439.29 18.6347C439.193 18.7725 439.136 18.9832 439.136 19.275V31.9095C439.136 32.2013 439.184 32.4201 439.29 32.5497C439.339 32.6227 439.387 32.6713 439.436 32.6956C439.484 32.7199 439.647 32.7767 439.922 32.8658C440.263 32.9793 440.425 33.2062 440.425 33.5466C440.425 33.7573 440.344 33.9194 440.182 34.0328C440.019 34.1463 439.784 34.203 439.484 34.203H439.152V34.2111Z" fill="white"/>
<path d="M449.448 16.6414V18.165C448.953 18.2379 448.58 18.4568 448.337 18.8215C448.094 19.1861 447.972 19.7048 447.972 20.3775V31.3506C447.972 31.5451 448.013 31.7478 448.094 31.9666C448.175 32.1773 448.28 32.3637 448.402 32.5177C448.54 32.6879 448.678 32.8094 448.832 32.8742C448.986 32.9472 449.188 32.9958 449.448 33.0201V34.5599C447.818 34.5599 446.4 34.1385 445.192 33.2876C444.13 32.542 443.327 31.5289 442.792 30.2647C442.257 29.0004 441.981 27.5011 441.981 25.7668C441.981 24.4944 442.16 23.3112 442.508 22.2171C442.857 21.115 443.368 20.1668 444.032 19.3563C444.705 18.5378 445.516 17.8814 446.448 17.387C447.389 16.8926 448.289 16.6414 449.156 16.6414L449.448 16.6576V16.6414ZM450.445 18.1812V16.6495C450.858 16.7143 451.191 16.7873 451.45 16.8602C451.71 16.9332 452.172 17.0952 452.845 17.3384C453.274 17.4924 453.558 17.5653 453.704 17.5653C453.947 17.5653 454.134 17.4599 454.263 17.233L454.426 16.9332C454.523 16.7306 454.717 16.6333 454.993 16.6333C455.22 16.6333 455.398 16.6981 455.52 16.8359C455.642 16.9737 455.706 17.1682 455.706 17.4275V22.6791C455.706 23.0195 455.633 23.2626 455.479 23.4085C455.325 23.5624 455.155 23.6354 454.961 23.6354C454.766 23.6354 454.596 23.5706 454.474 23.4409C454.353 23.3112 454.255 23.1005 454.174 22.8006C453.996 22.1361 453.826 21.6174 453.655 21.2365C453.291 20.4342 452.877 19.7859 452.415 19.2915C452.107 18.9511 451.791 18.6999 451.483 18.5135C451.175 18.3352 450.826 18.2136 450.445 18.165V18.1812ZM450.486 34.5518V33.012C451.142 32.9634 451.831 32.7122 452.553 32.2664C452.942 32.0233 453.282 31.6991 453.591 31.2858C453.899 30.8725 454.117 30.4268 454.272 29.9405C454.353 29.6731 454.458 29.4786 454.571 29.3651C454.685 29.2516 454.831 29.1949 455.017 29.1949C455.22 29.1949 455.39 29.2678 455.52 29.4218C455.658 29.5758 455.723 29.7622 455.723 29.9891C455.723 30.37 455.577 30.8239 455.285 31.3669C454.993 31.9017 454.62 32.4042 454.166 32.858C453.615 33.4172 453.039 33.8224 452.456 34.098C451.872 34.3654 451.215 34.5194 450.477 34.5518H450.486Z" fill="white"/>
<path d="M464.527 34.2111H458.568C458.268 34.2111 458.033 34.1544 457.871 34.0409C457.709 33.9275 457.628 33.7654 457.628 33.5547C457.628 33.2062 457.798 32.9793 458.13 32.8739C458.406 32.7848 458.568 32.728 458.617 32.7037C458.665 32.6794 458.714 32.6308 458.763 32.5578C458.868 32.4201 458.917 32.2094 458.917 31.9176V19.275C458.917 18.9832 458.868 18.7644 458.763 18.6347C458.714 18.5618 458.665 18.5132 458.617 18.4888C458.568 18.4645 458.406 18.4078 458.13 18.3186C457.79 18.2133 457.628 17.9783 457.628 17.6379C457.628 17.4272 457.709 17.2651 457.871 17.1516C458.033 17.0382 458.268 16.9814 458.568 16.9814H464.859C465.159 16.9814 465.394 17.0382 465.556 17.1516C465.719 17.2651 465.8 17.4272 465.8 17.6379C465.8 17.9864 465.629 18.2133 465.297 18.3186C465.021 18.4159 464.859 18.4726 464.811 18.4888C464.762 18.5132 464.713 18.5618 464.665 18.6347C464.567 18.7725 464.511 18.9832 464.511 19.275V31.9095C464.511 32.2013 464.559 32.4201 464.665 32.5497C464.713 32.6227 464.762 32.6713 464.811 32.6956C464.859 32.7199 465.021 32.7767 465.297 32.8658C465.637 32.9793 465.8 33.2062 465.8 33.5466C465.8 33.7573 465.719 33.9194 465.556 34.0328C465.394 34.1463 465.159 34.203 464.859 34.203H464.527V34.2111Z" fill="white"/>
<path d="M474.515 18.0027C474.085 18.1567 473.785 18.3593 473.607 18.6186C473.428 18.878 473.339 19.2589 473.339 19.7695V31.0506C473.339 31.7881 473.436 32.3149 473.639 32.6147C473.801 32.8659 474.093 33.0523 474.515 33.1577V34.5435C472.65 34.3895 471.077 33.6926 469.821 32.4364C468.175 30.8075 467.356 28.5302 467.356 25.6045C467.356 24.1377 467.575 22.8167 468.005 21.6334C468.434 20.4502 469.083 19.4453 469.934 18.6186C470.583 17.9865 471.28 17.5084 472.034 17.1761C472.788 16.8438 473.615 16.6655 474.523 16.625V17.9865L474.515 18.0027ZM475.544 18.0027V16.6412C476.452 16.6817 477.287 16.8681 478.041 17.1923C478.795 17.5246 479.492 18.0027 480.141 18.6349C481.859 20.3124 482.719 22.6384 482.719 25.6126C482.719 28.5869 481.9 30.8075 480.254 32.4445C478.99 33.7088 477.425 34.4058 475.544 34.5516V33.1658C475.763 33.1172 475.933 33.0523 476.055 32.9713C476.176 32.8903 476.29 32.7768 476.387 32.6228C476.614 32.2743 476.728 31.7557 476.728 31.0587V19.7695C476.728 19.3237 476.655 18.9671 476.501 18.7078C476.395 18.5295 476.282 18.3917 476.144 18.2945C476.006 18.1972 475.804 18.1 475.544 18.0027Z" fill="white"/>
<path d="M218.092 51.133V56.6358C218.092 56.9681 218.157 57.2031 218.279 57.3409C218.343 57.4219 218.408 57.4786 218.465 57.5029C218.522 57.5273 218.716 57.5759 219.049 57.6569C219.454 57.7461 219.657 57.9811 219.657 58.3539C219.657 58.597 219.543 58.7834 219.316 58.9131C219.178 58.9941 218.919 59.0428 218.53 59.0428H212.052C211.671 59.0428 211.412 58.9941 211.258 58.8888C211.039 58.751 210.926 58.5808 210.926 58.362C210.926 57.9892 211.128 57.7623 211.534 57.665C211.866 57.584 212.052 57.5273 212.117 57.511C212.174 57.4867 212.231 57.4381 212.296 57.349C212.425 57.2031 212.482 56.9681 212.482 56.6439V52.381L208.907 43.8635C208.769 43.5474 208.583 43.3124 208.339 43.1665C208.112 43.0206 207.967 42.9072 207.902 42.8261C207.837 42.7451 207.804 42.6235 207.804 42.4695C207.804 42.0319 208.121 41.8131 208.761 41.8131H214.947C215.279 41.8131 215.498 41.8536 215.628 41.9265C215.838 42.0643 215.944 42.2345 215.944 42.4533C215.944 42.7208 215.822 42.9315 215.579 43.0855L215.214 43.3124C215.068 43.4015 215.003 43.5474 215.003 43.7257C215.003 43.9364 215.052 44.139 215.141 44.3416L218.084 51.133H218.092ZM218.587 49.9336L217.881 48.2803L219.211 45.3141C219.316 45.0629 219.373 44.7144 219.373 44.2768C219.373 43.7905 219.105 43.442 218.562 43.2313C218.27 43.1098 218.076 43.0125 217.987 42.9234C217.898 42.8342 217.857 42.6964 217.857 42.5101C217.857 42.2831 217.93 42.1129 218.084 41.9914C218.181 41.9184 218.295 41.8617 218.424 41.8374C218.554 41.8131 218.773 41.7969 219.081 41.7969H222.202C222.794 41.7969 223.086 42.0319 223.086 42.5019C223.086 42.6721 223.045 42.8018 222.964 42.891C222.883 42.9801 222.729 43.0773 222.502 43.1827C222.089 43.3691 221.797 43.5555 221.619 43.7338C221.367 44.0012 221.157 44.3092 220.986 44.6577L220.694 45.2979L218.587 49.9174V49.9336Z" fill="white"/>
<path d="M230.147 41.805H233.471V43.3286C233.074 43.5555 232.766 43.8473 232.547 44.2038C232.182 44.7792 231.939 45.4519 231.817 46.238L231.687 47.0079C231.647 47.251 231.558 47.4455 231.412 47.5833C231.274 47.7211 231.096 47.794 230.885 47.794C230.674 47.794 230.488 47.7211 230.35 47.5671C230.212 47.4131 230.139 47.2186 230.139 46.9755V41.8131L230.147 41.805ZM240.102 41.805V56.6358C240.102 56.9681 240.167 57.2031 240.289 57.3409C240.354 57.4219 240.419 57.4786 240.475 57.5029C240.532 57.5273 240.727 57.5759 241.059 57.6569C241.464 57.7461 241.667 57.9811 241.667 58.3539C241.667 58.5727 241.562 58.751 241.343 58.8807C241.181 58.9779 240.913 59.0346 240.532 59.0346H234.071C233.698 59.0346 233.422 58.9779 233.228 58.8645C233.041 58.751 232.944 58.5808 232.944 58.3539C232.944 57.9811 233.147 57.7542 233.552 57.6569C233.884 57.5759 234.071 57.5191 234.136 57.5029C234.192 57.4786 234.257 57.43 234.314 57.3409C234.444 57.195 234.501 56.96 234.501 56.6358V41.805H240.111H240.102ZM244.472 41.805V46.9674C244.472 47.2105 244.399 47.4131 244.261 47.559C244.123 47.713 243.945 47.7859 243.726 47.7859C243.507 47.7859 243.345 47.713 243.199 47.5752C243.061 47.4374 242.972 47.2429 242.924 46.9998L242.794 46.2299C242.664 45.4438 242.421 44.7711 242.064 44.1957C241.837 43.8392 241.529 43.5555 241.14 43.3205V41.7969H244.464L244.472 41.805Z" fill="white"/>
<path d="M252.919 41.805V59.0346H246.969C246.669 59.0346 246.434 58.9779 246.272 58.8645C246.11 58.751 246.029 58.5889 246.029 58.3782C246.029 58.0297 246.199 57.8028 246.531 57.6974C246.807 57.6083 246.969 57.5516 247.018 57.5273C247.066 57.5029 247.115 57.4543 247.164 57.3814C247.269 57.2436 247.318 57.0329 247.318 56.7411V44.1066C247.318 43.8148 247.269 43.596 247.164 43.4664C247.115 43.3934 247.066 43.3448 247.018 43.3205C246.969 43.2962 246.807 43.2394 246.531 43.1503C246.191 43.0449 246.029 42.8099 246.029 42.4695C246.029 42.2588 246.11 42.0967 246.272 41.9833C246.434 41.8698 246.669 41.8131 246.969 41.8131H252.919V41.805ZM253.981 50.9952V49.5283C254.468 49.2933 254.833 49.034 255.068 48.7584C255.303 48.4829 255.473 48.1101 255.587 47.6482C255.651 47.3321 255.741 47.1052 255.854 46.9836C255.968 46.862 256.122 46.7972 256.324 46.7972C256.592 46.7972 256.778 46.9026 256.884 47.1133C256.941 47.2267 256.973 47.4699 256.973 47.8589V52.6647C256.973 53.0618 256.932 53.3373 256.843 53.4832C256.754 53.6372 256.592 53.7101 256.357 53.7101C256.162 53.7101 256.008 53.6534 255.903 53.5319C255.797 53.4103 255.708 53.2158 255.635 52.9402C255.489 52.3567 255.287 51.911 255.027 51.603C254.76 51.2951 254.419 51.0844 253.998 50.9871L253.981 50.9952ZM254.038 41.805H259.129V46.2704C259.129 46.5298 259.081 46.7243 258.975 46.8377C258.87 46.9512 258.716 47.016 258.497 47.016C258.311 47.016 258.181 46.9755 258.092 46.9026C258.011 46.8296 257.93 46.6675 257.848 46.4325C257.532 45.46 257.062 44.7144 256.438 44.1957C255.822 43.6852 255.019 43.3772 254.03 43.2719V41.7969L254.038 41.805ZM254.054 59.0346V57.6731C254.598 57.5921 255.052 57.4705 255.408 57.3165C255.765 57.1626 256.122 56.9356 256.487 56.6196C256.851 56.3116 257.135 55.9874 257.354 55.6552C257.573 55.3229 257.776 54.8853 257.97 54.3342C258.059 54.0667 258.157 53.8803 258.262 53.7831C258.359 53.6858 258.505 53.6372 258.675 53.6372C258.91 53.6372 259.073 53.7101 259.17 53.8479C259.259 53.9857 259.308 54.2288 259.308 54.5773V59.0346H254.054Z" fill="white"/>
<path d="M268.144 41.4644V42.988C267.65 43.0609 267.277 43.2797 267.034 43.6444C266.79 44.0091 266.669 44.5278 266.669 45.2004V56.1736C266.669 56.3681 266.709 56.5707 266.79 56.7895C266.872 57.0002 266.977 57.1866 267.099 57.3406C267.236 57.5108 267.374 57.6324 267.528 57.6972C267.682 57.7701 267.885 57.8188 268.144 57.8431V59.3829C266.515 59.3829 265.096 58.9615 263.888 58.1105C262.826 57.3649 262.024 56.3519 261.489 55.0876C260.953 53.8234 260.678 52.3241 260.678 50.5898C260.678 49.3174 260.856 48.1342 261.205 47.0401C261.553 45.9379 262.064 44.9897 262.729 44.1793C263.402 43.3608 264.212 42.7043 265.145 42.2099C266.085 41.7156 266.985 41.4644 267.852 41.4644L268.144 41.4806V41.4644ZM269.142 43.0042V41.4806C269.555 41.5454 269.887 41.6183 270.147 41.6913C270.406 41.7642 270.868 41.9263 271.541 42.1694C271.971 42.3234 272.255 42.3963 272.4 42.3963C272.644 42.3963 272.83 42.291 272.96 42.0641L273.122 41.7642C273.219 41.5616 273.414 41.4644 273.689 41.4644C273.916 41.4644 274.095 41.5292 274.216 41.667C274.338 41.8047 274.403 41.9992 274.403 42.2586V47.5101C274.403 47.8505 274.33 48.0936 274.176 48.2395C274.022 48.3935 273.852 48.4664 273.657 48.4664C273.462 48.4664 273.292 48.4016 273.171 48.2719C273.049 48.1423 272.952 47.9316 272.871 47.6317C272.692 46.9672 272.522 46.4485 272.352 46.0676C271.987 45.2653 271.574 44.6169 271.111 44.1226C270.803 43.7822 270.487 43.5309 270.179 43.3445C269.871 43.1663 269.523 43.0447 269.142 42.9961V43.0042ZM269.182 59.3748V57.835C269.839 57.7863 270.528 57.5351 271.249 57.0894C271.638 56.8463 271.979 56.5221 272.287 56.1088C272.595 55.6954 272.814 55.2497 272.968 54.7635C273.049 54.496 273.154 54.3015 273.268 54.1881C273.381 54.0746 273.527 54.0179 273.714 54.0179C273.916 54.0179 274.087 54.0908 274.216 54.2448C274.354 54.3988 274.419 54.5852 274.419 54.8121C274.419 55.193 274.273 55.6468 273.981 56.1898C273.689 56.7247 273.317 57.2272 272.863 57.681C272.311 58.2402 271.736 58.6454 271.152 58.9209C270.568 59.1884 269.912 59.3424 269.174 59.3748H269.182Z" fill="white"/>
<path d="M278.173 46.2296L279.51 48.4502V55.2172C279.51 55.8089 279.608 56.287 279.81 56.6679C280.013 57.0488 280.321 57.3568 280.751 57.5999L281.132 57.8187C281.351 57.9484 281.464 58.1348 281.464 58.386C281.464 58.5805 281.383 58.7426 281.221 58.8642C281.083 58.9695 280.807 59.0263 280.386 59.0263H277.467C276.705 59.0263 276.316 58.8074 276.316 58.3698C276.316 58.2158 276.357 58.0943 276.438 58.0132C276.519 57.9322 276.689 57.8025 276.965 57.6566C277.775 57.2109 278.173 56.4005 278.173 55.2172V46.2296ZM283.458 41.8047L290.179 53.4667V59.0344H286.734L278.156 44.2684C277.97 43.9523 277.816 43.7254 277.702 43.5957C277.581 43.4661 277.435 43.3769 277.248 43.3202L276.77 43.1419C276.64 43.1014 276.543 43.0284 276.47 42.915C276.397 42.8015 276.357 42.6799 276.357 42.5503C276.357 42.4044 276.397 42.2747 276.47 42.1532C276.543 42.0316 276.648 41.9425 276.77 41.8938C276.916 41.8371 277.297 41.8047 277.929 41.8047H283.458ZM290.179 51.4488L288.841 49.1877V45.6947C288.841 44.9897 288.736 44.4467 288.533 44.0739C288.331 43.7011 287.966 43.3769 287.439 43.1095C287.26 43.0284 287.139 42.9312 287.074 42.842C287.009 42.7448 286.969 42.6232 286.969 42.4692C286.969 42.2423 287.042 42.0721 287.188 41.9668C287.333 41.8614 287.569 41.8128 287.901 41.8128H291.055C291.484 41.8128 291.768 41.8776 291.898 42.0154C292.044 42.1532 292.108 42.3072 292.108 42.4936C292.108 42.6799 292.068 42.8015 291.987 42.8907C291.906 42.9798 291.711 43.1014 291.411 43.2472C290.965 43.4742 290.625 43.8226 290.398 44.2927C290.236 44.6412 290.155 45.1031 290.155 45.6947V51.4488H290.179Z" fill="white"/>
<path d="M300.321 42.826C299.891 42.98 299.591 43.1826 299.413 43.4419C299.234 43.7012 299.145 44.0821 299.145 44.5927V55.8738C299.145 56.6113 299.243 57.1381 299.445 57.438C299.607 57.6892 299.899 57.8756 300.321 57.9809V59.3668C298.456 59.2128 296.883 58.5158 295.627 57.2597C293.981 55.6307 293.162 53.3534 293.162 50.4278C293.162 48.9609 293.381 47.6399 293.811 46.4567C294.241 45.2735 294.889 44.2685 295.74 43.4419C296.389 42.8098 297.086 42.3316 297.84 41.9993C298.594 41.6671 299.421 41.4888 300.329 41.4482V42.8098L300.321 42.826ZM301.358 42.826V41.4645C302.266 41.505 303.101 41.6914 303.855 42.0155C304.609 42.3478 305.307 42.826 305.955 43.4581C307.674 45.1357 308.533 47.4616 308.533 50.4359C308.533 53.4101 307.714 55.6307 306.069 57.2678C304.804 58.532 303.239 59.229 301.358 59.3749V57.989C301.577 57.9404 301.748 57.8756 301.869 57.7945C301.991 57.7135 302.104 57.6 302.202 57.4461C302.429 57.0976 302.542 56.5789 302.542 55.8819V44.6008C302.542 44.1551 302.469 43.7985 302.315 43.5391C302.21 43.3608 302.096 43.2231 301.958 43.1258C301.821 43.0286 301.618 42.9313 301.358 42.8341V42.826Z" fill="white"/>
<path d="M316.972 59.0346H311.022C310.722 59.0346 310.487 58.9778 310.325 58.8644C310.163 58.7509 310.081 58.5888 310.081 58.3781C310.081 58.0296 310.252 57.8027 310.584 57.6973C310.86 57.6082 311.022 57.5515 311.071 57.5272C311.119 57.5028 311.168 57.4542 311.216 57.3813C311.322 57.2435 311.37 57.0328 311.37 56.741V44.1065C311.37 43.8147 311.322 43.5959 311.216 43.4663C311.168 43.3933 311.119 43.3447 311.071 43.3204C311.022 43.2961 310.86 43.2393 310.584 43.1502C310.244 43.0448 310.081 42.8098 310.081 42.4694C310.081 42.2587 310.163 42.0966 310.325 41.9832C310.487 41.8697 310.722 41.813 311.022 41.813H317.41C317.783 41.813 318.042 41.8616 318.205 41.967C318.424 42.1047 318.537 42.2749 318.537 42.4937C318.537 42.8665 318.334 43.0935 317.929 43.1907C317.605 43.2637 317.41 43.3204 317.345 43.3447C317.289 43.369 317.224 43.4176 317.159 43.4987C317.029 43.6527 316.972 43.8877 316.972 44.2037V59.0508V59.0346ZM317.994 59.0346V57.6244C318.407 57.5515 318.732 57.4623 318.975 57.3732C319.218 57.284 319.445 57.1463 319.664 56.968C320.021 56.6924 320.345 56.3115 320.637 55.8172C320.929 55.3228 321.172 54.7879 321.358 54.1882C321.496 53.7263 321.618 53.4183 321.731 53.2724C321.845 53.1265 322.015 53.0536 322.234 53.0536C322.469 53.0536 322.639 53.1509 322.753 53.3454C322.801 53.4345 322.826 53.6209 322.826 53.8965V59.0346H318.002H317.994Z" fill="white"/>
<path d="M330.503 42.826C330.073 42.98 329.773 43.1826 329.595 43.4419C329.417 43.7012 329.327 44.0821 329.327 44.5927V55.8738C329.327 56.6113 329.425 57.1381 329.627 57.438C329.789 57.6892 330.081 57.8756 330.503 57.9809V59.3668C328.638 59.2128 327.066 58.5158 325.809 57.2597C324.163 55.6307 323.344 53.3534 323.344 50.4278C323.344 48.9609 323.563 47.6399 323.993 46.4567C324.423 45.2735 325.071 44.2685 325.922 43.4419C326.571 42.8098 327.268 42.3316 328.022 41.9993C328.776 41.6671 329.603 41.4888 330.511 41.4482V42.8098L330.503 42.826ZM331.532 42.826V41.4645C332.44 41.505 333.275 41.6914 334.029 42.0155C334.783 42.3478 335.481 42.826 336.129 43.4581C337.848 45.1357 338.707 47.4616 338.707 50.4359C338.707 53.4101 337.888 55.6307 336.243 57.2678C334.978 58.532 333.413 59.229 331.532 59.3749V57.989C331.751 57.9404 331.922 57.8756 332.043 57.7945C332.165 57.7135 332.278 57.6 332.376 57.4461C332.603 57.0976 332.716 56.5789 332.716 55.8819V44.6008C332.716 44.1551 332.643 43.7985 332.489 43.5391C332.384 43.3608 332.27 43.2231 332.132 43.1258C331.995 43.0286 331.792 42.9313 331.532 42.8341V42.826Z" fill="white"/>
<path d="M346.838 41.4646V42.8667C346.101 43.045 345.728 43.6285 345.728 44.6334V56.3846C345.728 56.8384 345.793 57.1869 345.914 57.43C346.028 57.6327 346.255 57.8028 346.611 57.9487V59.3751C346.344 59.3751 346.093 59.3508 345.874 59.3102C345.647 59.2697 345.355 59.1806 344.982 59.059C344.098 58.7591 343.296 58.2972 342.582 57.6732C341.869 57.0492 341.277 56.3036 340.815 55.4364C340.102 54.083 339.745 52.4783 339.745 50.6306C339.745 48.7828 340.061 47.2511 340.701 45.8572C341.342 44.4632 342.258 43.3773 343.458 42.5911C344.147 42.1292 344.893 41.7969 345.679 41.5943C346.011 41.5133 346.393 41.4646 346.838 41.4646ZM353.583 56.9276C353.243 57.268 352.797 57.6083 352.238 57.9568C351.678 58.3053 351.151 58.5809 350.657 58.7835C350.203 58.9618 349.7 59.0995 349.149 59.213C348.598 59.3183 348.111 59.3751 347.69 59.3751V57.9487C347.933 57.892 348.119 57.8191 348.241 57.7299C348.362 57.6489 348.468 57.5273 348.549 57.3733C348.695 57.114 348.76 56.7817 348.76 56.3765V52.6891C348.76 52.3568 348.695 52.1218 348.573 51.984C348.517 51.9029 348.452 51.8462 348.395 51.8219C348.338 51.7976 348.144 51.749 347.811 51.676C347.406 51.5788 347.203 51.3356 347.203 50.971C347.203 50.7521 347.3 50.5819 347.487 50.4685C347.673 50.355 347.957 50.2902 348.33 50.2902H353.364C353.745 50.2902 354.013 50.3469 354.167 50.4442C354.321 50.5495 354.402 50.7359 354.402 50.9953C354.402 51.1573 354.37 51.287 354.305 51.3924C354.24 51.4977 354.127 51.6112 353.956 51.7246C353.786 51.8381 353.681 51.9516 353.64 52.0569C353.6 52.1623 353.575 52.3406 353.575 52.6161V56.9195L353.583 56.9276ZM347.876 42.8343V41.4728C349.246 41.6024 350.373 41.8537 351.257 42.2264C351.516 42.348 351.719 42.4047 351.865 42.4047C352.002 42.4047 352.1 42.3723 352.173 42.3075C352.246 42.2427 352.392 42.0644 352.611 41.7726C352.765 41.5619 352.951 41.4565 353.178 41.4565C353.405 41.4565 353.583 41.5214 353.673 41.651C353.77 41.7807 353.818 41.9995 353.818 42.2994V47.2106C353.818 47.8508 353.583 48.1669 353.113 48.1669C352.878 48.1669 352.7 48.102 352.586 47.9805C352.473 47.8508 352.367 47.6077 352.262 47.2349C352.132 46.7648 351.905 46.2137 351.581 45.5897C351.257 44.9657 350.94 44.4713 350.632 44.1066C350.284 43.6852 349.903 43.3773 349.473 43.1828C349.043 42.9883 348.508 42.8667 347.868 42.8343H347.876Z" fill="white"/>
<path d="M363.206 59.0346H357.248C356.948 59.0346 356.713 58.9778 356.55 58.8644C356.388 58.7509 356.307 58.5888 356.307 58.3781C356.307 58.0296 356.477 57.8027 356.81 57.6973C357.086 57.6082 357.248 57.5515 357.296 57.5272C357.345 57.5028 357.394 57.4542 357.442 57.3813C357.548 57.2435 357.596 57.0328 357.596 56.741V44.1065C357.596 43.8147 357.548 43.5959 357.442 43.4663C357.394 43.3933 357.345 43.3447 357.296 43.3204C357.248 43.2961 357.086 43.2393 356.81 43.1502C356.469 43.0448 356.307 42.8098 356.307 42.4694C356.307 42.2587 356.388 42.0966 356.55 41.9832C356.713 41.8697 356.948 41.813 357.248 41.813H363.539C363.839 41.813 364.074 41.8697 364.236 41.9832C364.398 42.0966 364.479 42.2587 364.479 42.4694C364.479 42.8179 364.309 43.0448 363.976 43.1502C363.701 43.2474 363.539 43.3042 363.49 43.3204C363.441 43.3447 363.393 43.3933 363.344 43.4663C363.247 43.604 363.19 43.8147 363.19 44.1065V56.741C363.19 57.0328 363.239 57.2516 363.344 57.3813C363.393 57.4542 363.441 57.5028 363.49 57.5272C363.539 57.5515 363.701 57.6082 363.976 57.6973C364.317 57.8108 364.479 58.0377 364.479 58.3781C364.479 58.5888 364.398 58.7509 364.236 58.8644C364.074 58.9778 363.839 59.0346 363.539 59.0346H363.206Z" fill="white"/>
<path d="M370.746 45.0062L371.386 47.6157L369.149 55.7686C369.084 56.0037 369.051 56.2225 369.051 56.4251C369.051 56.9519 369.303 57.3328 369.797 57.5597L370.243 57.7623C370.519 57.8919 370.657 58.1027 370.657 58.3944C370.657 58.8158 370.348 59.0265 369.732 59.0265H366.522C366.214 59.0265 365.963 58.9617 365.784 58.832C365.606 58.7024 365.509 58.5241 365.509 58.2972C365.509 58.054 365.695 57.8514 366.068 57.6893C366.417 57.5354 366.668 57.3976 366.83 57.276C366.992 57.1545 367.154 56.9843 367.3 56.7817C367.535 56.4332 367.73 55.9793 367.884 55.4039L370.738 45.0062H370.746ZM371.613 41.805H376.704L380.215 56.6358C380.279 56.8951 380.361 57.1301 380.442 57.3328C380.515 57.4948 380.685 57.6245 380.944 57.7218C381.163 57.8109 381.317 57.9082 381.398 57.9973C381.479 58.0864 381.528 58.2161 381.528 58.3782C381.528 58.8158 381.196 59.0346 380.539 59.0346H374.24C373.988 59.0346 373.786 58.9698 373.632 58.8482C373.478 58.7267 373.405 58.5646 373.405 58.362C373.405 58.1918 373.437 58.0702 373.502 57.9811C373.567 57.9 373.721 57.7947 373.956 57.665C374.126 57.584 374.24 57.4867 374.313 57.3895C374.378 57.2922 374.41 57.1626 374.41 57.0086C374.41 56.8627 374.394 56.7411 374.369 56.6277L373.964 54.7961H370.438L370.778 53.2968H373.607L371.281 43.0368L371.597 41.7969L371.613 41.805Z" fill="white"/>
</g>
<defs>
<clipPath id="clip0_23_168">
<rect width="181.688" height="75.4062" fill="white"/>
</clipPath>
<clipPath id="clip1_23_168">
<rect width="274.906" height="42.75" fill="white" transform="translate(207.812 16.625)"/>
</clipPath>
</defs>
</svg>
