<svg width="79" height="80" viewBox="0 0 79 80" fill="none" xmlns="http://www.w3.org/2000/svg">
<path d="M4.99219 74.9654L9.97766 56.0245C7.15759 50.8368 5.66843 45.0263 5.66843 39.1351C5.66843 19.8571 21.0709 4.16943 39.9984 4.16943C58.9259 4.16943 74.3284 19.8571 74.3284 39.1351C74.3284 58.4132 58.9259 74.1008 39.9984 74.1008C21.0709 74.1008 28.7037 72.6427 23.6823 69.8657L4.99219 74.9654ZM24.6103 62.7729L25.7902 63.491C30.1138 66.1141 35.0273 67.499 40.0056 67.499C55.3577 67.499 67.8465 54.7788 67.8465 39.1425C67.8465 23.5061 55.3577 10.786 40.0056 10.786C24.6535 10.786 12.1646 23.5061 12.1646 39.1425C12.1646 54.7788 13.5747 49.386 16.2365 53.8483L16.9559 55.0573L14.1718 65.6305L24.6103 62.7802V62.7729Z" fill="white"/>
<path fill-rule="evenodd" clip-rule="evenodd" d="M52.7678 44.0001C51.3578 43.1354 49.5161 42.1756 47.8543 42.8717C46.5737 43.4065 45.7608 45.4435 44.9335 46.4767C44.5091 47.0116 44.0055 47.0922 43.3508 46.8284C38.5596 44.8867 34.8834 41.626 32.236 37.1344C31.79 36.4383 31.8691 35.8888 32.4087 35.2367C33.2072 34.2768 34.2144 33.1923 34.4302 31.8954C34.646 30.6058 34.0489 29.0964 33.531 27.946C32.8619 26.4732 32.1137 24.3777 30.6677 23.5497C29.3368 22.7876 27.5887 23.2126 26.4089 24.1945C24.3657 25.8871 23.3802 28.5469 23.4089 31.1774C23.4161 31.9247 23.5097 32.6721 23.6751 33.3902C24.0852 35.1267 24.8765 36.7461 25.7614 38.2848C26.4304 39.4498 27.157 40.5709 27.9412 41.6627C30.5023 45.2091 33.6964 48.2938 37.387 50.5946C39.2358 51.745 41.2214 52.7561 43.2789 53.4449C45.5882 54.2216 47.6457 55.0276 50.1348 54.5513C52.7462 54.0457 55.3217 52.4044 56.3576 49.8399C56.667 49.0779 56.8181 48.2352 56.6454 47.4365C56.2929 45.7806 54.0915 44.7987 52.775 43.9927L52.7678 44.0001Z" fill="white"/>
</svg>
