<svg width="327" height="136" viewBox="0 0 327 136" fill="none" xmlns="http://www.w3.org/2000/svg">
<path d="M135.964 3.35413H113.353V3.39054C106.071 4.07333 95.196 6.31835 85.7166 13.7908C81.3632 17.223 79.2928 20.1909 78.7257 21.0321C73.5053 28.7631 73.5325 36.9075 73.5507 42.1185C73.5689 47.2149 73.6489 54.0901 77.786 61.5044C80.6307 66.5989 84.4897 70.5846 89.2593 73.3485C93.5091 75.812 98.2097 77.6401 103.228 78.7836C107.66 79.7941 112.115 80.6845 116.512 81.4346C120.582 82.1065 124.359 82.9622 127.735 83.9801C130.001 84.6629 132.03 85.3384 133.613 87.2229C135.049 88.9344 135.473 90.8535 135.684 91.8167C136.211 94.2128 135.976 96.487 135.538 97.9527C134.38 101.831 130.347 104.904 125.206 105.973H39.4868V27.8491H54.3175V3.35413H0.204346V27.8491H15.035V105.97H1.16955V130.465H130.654C131.079 130.41 131.505 130.355 131.928 130.301C132.199 130.215 132.47 130.13 132.743 130.044C140.161 128.418 146.477 125.587 151.603 121.552C160.683 114.407 165.287 104.318 165.287 91.5673V91.4107C165.287 84.0474 163.964 77.8295 161.351 72.9279C158.723 67.9973 155.144 64.0371 150.712 61.1548C146.715 58.5565 142.236 56.55 137.403 55.1881C133.099 53.9754 128.736 52.9249 124.45 52.0654C120.008 51.166 115.803 50.1919 111.948 49.1704C109.094 48.4148 106.838 47.3059 105.241 45.8712C105.133 45.7746 105.039 45.6763 105.033 45.6709C103.816 44.4163 103.321 41.8582 103.321 41.8563C103.128 40.8676 102.796 39.1488 103.272 37.0003C104.09 33.3187 106.662 31.2102 107.613 30.4546C109.774 28.734 112.01 28.1022 113.353 27.8454H187.508V130.461H211.962V27.8491H247.049V3.35413H135.965H135.964Z" fill="white"/>
<path d="M325.289 78.9929L325.451 68.4106L300.512 82.833L275.36 67.7715L300.512 52.71L319.261 63.5527L326.636 57.3293L309.42 47.3733L324.282 38.4733L324.424 27.8072L305.09 39.3855V19.0074L296.024 23.4519V44.8151L270.681 59.9913V34.6642L290.696 20.1672V8.83102L270.681 23.3281V0.0694275H261.615V135.931H270.681V114.081L286.217 125.252L291.643 117.976L270.681 102.745V75.5517L296.024 90.7279V113.433H305.09V96.1593L322.142 106.549L326.796 98.7539L309.42 88.1697L325.289 78.9929Z" fill="#0BE5F8"/>
</svg>
